<svg width="15" height="15" viewBox="0 0 15 15" fill="none" xmlns="http://www.w3.org/2000/svg">
<path d="M14.5897 4.88086C14.6857 5.13281 14.6042 5.41699 14.4065 5.60156L13.1474 6.75586C13.1794 6.99902 13.1969 7.24805 13.1969 7.5C13.1969 7.75195 13.1794 8.00098 13.1474 8.24414L14.4065 9.39844C14.6042 9.58301 14.6857 9.86719 14.5897 10.1191C14.4618 10.4678 14.3077 10.8047 14.1332 11.124L13.9965 11.3613C13.8046 11.6836 13.5894 11.9883 13.3539 12.2783C13.1794 12.4863 12.8974 12.5596 12.6415 12.4775L11.0219 11.9561C10.6322 12.2578 10.1757 12.5098 9.74244 12.7031L9.37897 14.376C9.32081 14.6396 9.11727 14.8271 8.84975 14.8975C8.44848 14.9648 8.03558 15 7.58778 15C7.19232 15 6.77942 14.9648 6.37814 14.8975C6.11063 14.8271 5.90708 14.6396 5.84893 14.376L5.48545 12.7031C5.02602 12.5098 4.59567 12.2578 4.20603 11.9561L2.58756 12.4775C2.33051 12.5596 2.04701 12.4863 1.87487 12.2783C1.63904 11.9883 1.42387 11.6836 1.23196 11.3613L1.09587 11.124C0.919369 10.8047 0.765839 10.4678 0.637024 10.1191C0.542812 9.86719 0.622194 9.58301 0.821668 9.39844L2.07957 8.24414C2.04759 8.00098 2.03101 7.75195 2.03101 7.5C2.03101 7.24805 2.04759 6.99902 2.07957 6.75586L0.821668 5.60156C0.622194 5.41699 0.542812 5.13574 0.637024 4.88086C0.765839 4.53223 0.91966 4.19531 1.09587 3.87598L1.23166 3.63867C1.42387 3.31641 1.63904 3.01172 1.87487 2.72314C2.04701 2.51367 2.33051 2.44102 2.58756 2.52363L4.20603 3.04395C4.59567 2.74102 5.02602 2.48906 5.48545 2.29775L5.84893 0.624902C5.90708 0.358887 6.11063 0.147656 6.37814 0.102832C6.77942 0.0351855 7.19232 0 7.61395 0C8.03557 0 8.44848 0.0351855 8.84975 0.102832C9.11727 0.147656 9.32081 0.358887 9.37897 0.624902L9.74244 2.29775C10.1757 2.48906 10.6322 2.74102 11.0219 3.04395L12.6415 2.52363C12.8974 2.44102 13.1794 2.51367 13.3539 2.72314C13.5894 3.01172 13.8046 3.31641 13.9965 3.63867L14.1332 3.87598C14.3077 4.19531 14.4618 4.53223 14.5897 4.88086ZM7.61395 9.84375C8.89919 9.84375 9.94017 8.79492 9.94017 7.47363C9.94017 6.20508 8.89919 5.12988 7.61395 5.12988C6.32871 5.12988 5.28772 6.20508 5.28772 7.47363C5.28772 8.79492 6.32871 9.84375 7.61395 9.84375Z" fill="#333333"/>
</svg>
